<?xml version="1.0" standalone="no"?>
<!DOCTYPE svg PUBLIC "-//W3C//DTD SVG 20010904//EN"
 "http://www.w3.org/TR/2001/REC-SVG-20010904/DTD/svg10.dtd">
<svg version="1.0" xmlns="http://www.w3.org/2000/svg"
 width="1000.000000pt" height="1000.000000pt" viewBox="0 0 1000.000000 1000.000000"
 preserveAspectRatio="xMidYMid meet">
<metadata>
Created by potrace 1.14, written by Peter Selinger 2001-2017
</metadata>
<g transform="translate(0.000000,1000.000000) scale(0.100000,-0.100000)"
fill="#000000" stroke="none">
<path d="M0 5000 l0 -5000 5000 0 5000 0 0 5000 0 5000 -5000 0 -5000 0 0
-5000z m5385 4175 c710 -64 1305 -118 1322 -121 25 -4 247 -192 1005 -855 535
-468 996 -871 1023 -897 l50 -47 299 -1327 299 -1327 -533 -1250 -533 -1251
-1171 -699 -1171 -699 -1351 123 c-743 67 -1357 125 -1364 130 -27 17 -2016
1758 -2031 1778 -11 14 -133 536 -315 1344 l-297 1322 533 1250 533 1251 1171
700 c1064 636 1174 699 1206 695 19 -3 616 -57 1325 -120z"/>
<path d="M4224 8993 c3 -21 20 -209 37 -418 19 -223 36 -385 43 -391 13 -13
1847 -676 1853 -670 5 4 321 1299 319 1303 -1 1 -492 47 -1091 102 -600 55
-1107 103 -1128 106 l-39 6 6 -38z"/>
<path d="M2980 8380 c-547 -325 -998 -594 -1003 -599 -9 -9 808 -1231 823
-1231 4 0 266 334 581 743 315 408 595 770 621 803 l48 62 -30 398 c-17 218
-30 401 -30 406 0 4 -4 8 -8 8 -5 0 -456 -266 -1002 -590z"/>
<path d="M6701 8703 c-6 -21 -76 -308 -156 -638 -80 -330 -148 -607 -150 -615
-4 -13 72 -44 367 -150 228 -82 384 -133 402 -132 50 4 1179 142 1182 145 3 3
-1587 1393 -1617 1415 -16 11 -19 9 -28 -25z"/>
<path d="M3620 7204 c-316 -410 -597 -774 -624 -809 l-48 -65 48 -77 c27 -42
52 -81 55 -86 4 -6 2775 740 2944 793 29 10 31 14 63 147 17 76 32 145 32 155
0 10 -16 21 -42 31 -24 8 -445 157 -937 331 -491 175 -898 319 -905 321 -6 2
-270 -331 -586 -741z"/>
<path d="M1358 6488 c-252 -590 -456 -1073 -455 -1074 1 -1 285 64 630 145
l628 146 245 318 245 318 -28 43 c-105 161 -799 1176 -803 1176 -3 0 -211
-482 -462 -1072z"/>
<path d="M6321 7152 c-6 -20 -28 -108 -50 -196 l-39 -159 353 -530 353 -530 6
44 c5 49 38 1171 34 1174 -2 1 -106 39 -233 85 -126 45 -272 97 -322 116 l-93
33 -9 -37z"/>
<path d="M7891 7005 c-392 -43 -656 -77 -660 -83 -4 -6 -15 -355 -24 -774
l-18 -762 358 -534 c197 -294 361 -536 365 -538 4 -3 277 80 608 183 l601 188
-6 40 c-4 22 -127 560 -273 1195 -205 885 -271 1155 -282 1156 -8 1 -309 -31
-669 -71z"/>
<path d="M4581 6324 c-778 -211 -1417 -387 -1421 -391 -4 -4 -21 -303 -37
-663 l-30 -655 485 -710 c266 -390 487 -713 491 -718 6 -5 2830 817 2837 826
1 1 9 293 19 650 l18 648 -467 699 c-256 385 -469 700 -474 699 -4 -1 -643
-174 -1421 -385z"/>
<path d="M2600 5849 c-105 -138 -190 -254 -188 -259 6 -16 443 -649 445 -646
2 2 15 229 28 505 l25 501 -52 75 c-29 41 -55 75 -59 75 -4 0 -94 -113 -199
-251z"/>
<path d="M1990 5410 c-113 -26 -397 -92 -632 -145 -345 -79 -428 -101 -428
-114 0 -21 505 -2210 511 -2214 9 -8 1320 70 1328 79 4 5 22 324 40 709 18
385 34 725 37 755 l6 55 -319 459 c-175 253 -323 461 -328 462 -6 1 -102 -19
-215 -46z"/>
<path d="M7179 4938 c-4 -8 -26 -854 -23 -857 4 -4 77 17 392 116 70 22 112
40 109 47 -7 17 -468 696 -473 696 -2 0 -5 -1 -5 -2z"/>
<path d="M8481 4220 c-300 -94 -548 -173 -552 -177 -3 -5 -111 -129 -238 -276
l-232 -269 35 -51 c213 -308 703 -1000 709 -1001 5 0 184 411 398 914 214 503
400 941 414 973 13 31 21 57 17 56 -4 0 -252 -76 -551 -169z"/>
<path d="M3066 4118 c-12 -146 -58 -1129 -53 -1134 13 -13 762 -293 768 -286
15 18 108 295 102 305 -6 11 -802 1177 -809 1185 -1 2 -5 -29 -8 -70z"/>
<path d="M7350 3869 c-68 -23 -114 -43 -112 -50 4 -15 59 -96 70 -103 5 -3 48
40 96 95 47 54 81 99 74 98 -7 0 -65 -18 -128 -40z"/>
<path d="M5540 3351 l-1415 -416 -56 -170 c-37 -115 -52 -172 -44 -177 6 -3
399 -153 875 -332 l864 -326 22 22 c12 13 322 368 688 791 l666 767 -92 128
c-50 70 -91 128 -92 128 0 1 -638 -186 -1416 -415z"/>
<path d="M6566 2483 c-395 -456 -722 -829 -726 -831 -4 -2 -430 157 -946 352
-517 195 -946 356 -953 358 -11 2 -65 -146 -216 -592 l-201 -595 36 -7 c19 -4
559 -56 1200 -114 l1166 -106 1067 637 c720 431 1064 642 1058 649 -4 6 -174
245 -376 531 -202 286 -373 526 -379 533 -10 10 -159 -156 -730 -815z"/>
<path d="M2187 2730 c-296 -15 -540 -29 -542 -31 -4 -4 1639 -1432 1652 -1436
7 -2 403 1149 403 1173 0 6 -185 81 -411 167 -407 156 -411 157 -487 156 -42
-1 -319 -14 -615 -29z"/>
</g>
</svg>
